HIERARCHY
ROOT Hip
{
    OFFSET 0.0 0.0 0.0
    CHANNELS 6 Xposition Yposition Zposition Zrotation Xrotation Yrotation
    JOINT RightHip
    {
        OFFSET -9.598588943481445 0.0 0.0
        CHANNELS 3 Zrotation Xrotation Yrotation
        JOINT RightKnee
        {
            OFFSET 0.0 0.0 -36.91640090942383
            CHANNELS 3 Zrotation Xrotation Yrotation
            JOINT RightAnkle
            {
                OFFSET 0.0 0.0 -37.65476989746094
                CHANNELS 3 Zrotation Xrotation Yrotation
                End Site
                {
                    OFFSET 0.0 -15.061907768249512 0.0
                }
            }
        }
    }
    JOINT LeftHip
    {
        OFFSET 9.598588943481445 0.0 0.0
        CHANNELS 3 Zrotation Xrotation Yrotation
        JOINT LeftKnee
        {
            OFFSET 0.0 0.0 -36.91640090942383
            CHANNELS 3 Zrotation Xrotation Yrotation
            JOINT LeftAnkle
            {
                OFFSET 0.0 0.0 -37.65476989746094
                CHANNELS 3 Zrotation Xrotation Yrotation
                End Site
                {
                    OFFSET 0.0 -15.061907768249512 0.0
                }
            }
        }
    }
    JOINT Spine
    {
        OFFSET 0.0 0.0 42.046348571777344
        CHANNELS 3 Zrotation Xrotation Yrotation
        JOINT Thorax
        {
            OFFSET 0.0 0.0 12.655683517456055
            CHANNELS 3 Zrotation Xrotation Yrotation
            JOINT Neck
            {
                OFFSET 0.0 0.0 0.0
                CHANNELS 3 Zrotation Xrotation Yrotation
                End Site
                {
                    OFFSET 0.0 0.0 0.0
                }
            }
            JOINT LeftShoulder
            {
                OFFSET 17.508975982666016 0.0 0.0
                CHANNELS 3 Zrotation Xrotation Yrotation
                JOINT LeftElbow
                {
                    OFFSET 29.470849990844727 0.0 0.0
                    CHANNELS 3 Zrotation Xrotation Yrotation
                    JOINT LeftWrist
                    {
                        OFFSET 21.095163345336914 0.0 0.0
                        CHANNELS 3 Zrotation Xrotation Yrotation
                        End Site
                        {
                            OFFSET 8.438065528869629 0.0 0.0
                        }
                    }
                }
            }
            JOINT RightShoulder
            {
                OFFSET -17.508975982666016 0.0 0.0
                CHANNELS 3 Zrotation Xrotation Yrotation
                JOINT RightElbow
                {
                    OFFSET -29.470849990844727 0.0 0.0
                    CHANNELS 3 Zrotation Xrotation Yrotation
                    JOINT RightWrist
                    {
                        OFFSET -21.095163345336914 0.0 0.0
                        CHANNELS 3 Zrotation Xrotation Yrotation
                        End Site
                        {
                            OFFSET -8.438065528869629 0.0 0.0
                        }
                    }
                }
            }
        }
    }
}
MOTION
Frames: 4
Frame Time: 0.03333333333333333
9.256263732910156 59.63611602783203 -13.697357177734375 32.83368425588231 -61.51982458086043 39.27470944857849 -0.5024796148802829 -10.350136566981034 1.2548533243537336 0.480677641015721 9.388574014602597 1.2139530220148476 2.2069531490250793e-32 6.361109362927033e-15 -3.9756933518293955e-16 -0.133396223414279 -12.042800998322777 -2.9573785822268635 -0.3172476662402054 13.483714800799047 2.3080671433292874 7.951386703658791e-16 6.162324695335563e-15 -7.951386703658791e-16 -0.3713820383028774 -12.979806477677688 2.6988020020331067 -1.0160753653941648 1.4678334917409889e-06 -1.4849878642594337e-06 -14.09553085575032 12.685679156362887 -14.901318040937339 -41.88587324013814 21.77983853253808 85.13250584079529 -41.7818032981617 1.1690817604690808e-06 2.6923877542513927e-06 0.0 0.0 0.0 66.82185968056085 8.29482820533618 -88.87585782939449 9.784952534320132 -1.375879678822332e-07 -6.273927284009041e-07 0.0 0.0 -7.392304826057784e-16
9.260162353515625 59.61260986328125 -13.6427001953125 32.855328990530204 -61.6331401601203 39.291176624313714 -0.638200090345927 -10.22443237591693 1.226197582998015 0.4724137207583078 9.386632590373702 1.2013636945752828 -7.951386703658792e-16 6.2617170291312985e-15 3.975693351829396e-16 0.020113655384829756 -12.06544104292851 -2.940614261168775 -0.3306101431519979 13.727110140903292 2.1780338396017664 7.951386703658792e-16 0.0 0.0 -0.3625283392968417 -12.935582929610257 2.7443844648895688 -0.862058792411542 -3.8115441873075455e-06 6.277118291160147e-07 -14.149340349205268 12.687480208595487 -14.916753889571748 -41.81554265464034 21.837793127318797 85.10651308286424 -41.7604031385259 -2.7236591875899247e-06 8.48732155112369e-07 0.0 0.0 0.0 65.695268020739 8.131905951109488 -88.87116601887804 9.704853504981228 -3.378024761038645e-06 -1.4290862498387843e-06 6.3611093629270335e-15 1.1034765745125397e-32 1.987846675914698e-16
9.232513427734375 59.62653350830078 -13.605239868164062 33.03087995608098 -61.604480666357595 39.455760471083074 -0.6500159470685786 -10.244960533423132 1.168922054943215 0.4697583535175472 9.582642570660024 1.2144905819231335 -3.1805546814635168e-15 6.1623246953355635e-15 -3.1805546814635168e-15 0.052316912880277754 -12.235950354875568 -2.904377439298341 -0.3551161743233434 14.00308594089105 2.044459638827086 -7.951386703658791e-16 6.361109362927033e-15 4.4139062980501586e-32 -0.3481271042054381 -12.924332864102716 2.7752059021306605 -0.9209478636334645 7.358412874665095e-07 3.9808467519871546e-07 -14.184529214607332 12.624386721381198 -14.909575131453687 -41.69245852614963 21.897336284718126 85.161991203433 -41.85587795612686 -2.206506462506994e-06 6.620272425296068e-06 1.7655625192200634e-31 3.1805546814635168e-15 -6.3611093629270335e-15 64.33268193594927 7.949552450383707 -88.74747077475287 9.487569148760638 -1.2152768518527024e-06 -2.374405828066136e-07 -6.3611093629270335e-15 -4.4139062980501586e-32 7.951386703658792e-16
9.167366027832031 59.657859802246094 -13.557525634765625 33.10777850675395 -61.58164082991227 39.54005388504742 -0.6070430854566277 -10.353138427186886 1.093530027671616 0.4396929950743024 9.931324030425236 1.2557631663693651 -7.951386703658791e-16 5.517382872562698e-33 -7.951386703658791e-16 0.061460819644346715 -12.406122018544385 -2.9918097174328726 -0.4126192775711206 14.22191781804582 2.117546721429961 2.3854160110976384e-15 -6.361109362927035e-15 1.5902773407317588e-15 -0.31299027291163006 -12.932113692099383 2.774066371364073 -1.0461711598488856 1.1071223364888213e-06 5.014473536973194e-07 -14.21289170234415 12.44523982294124 -14.885464561646376 -41.446671463611594 21.986882878561353 85.1977773501996 -41.888359767249206 -4.3094251400924925e-06 -6.380509637402857e-07 -1.7655625192200634e-31 3.1805546814635168e-15 6.3611093629270335e-15 63.42570852158363 7.743181814907197 -88.63793971355194 9.179383282621352 -4.376166154487303e-06 -5.555517379654611e-07 0.0 0.0 1.987846675914698e-16
